<svg width="453" height="472" viewBox="0 0 453 472" fill="none" xmlns="http://www.w3.org/2000/svg">
<g clip-path="url(#clip0_1_65)">
<path d="M372.999 252.524C376.077 253.379 379.361 253.075 382.23 251.67C385.099 250.265 387.353 247.855 388.565 244.899C389.777 241.942 389.863 238.643 388.805 235.628C387.748 232.612 385.622 230.09 382.83 228.537L355.132 197.105L331.705 202.167L364.655 234.45C363.845 236.167 363.421 238.04 363.413 239.938C363.405 241.836 363.813 243.713 364.609 245.436C365.404 247.159 366.568 248.686 368.017 249.911C369.467 251.136 371.167 252.028 372.999 252.524Z" fill="#A0616A"/>
<path d="M281.873 139.992L350.907 226.673L371.95 217.009L290.808 90.6447L281.873 139.992Z" fill="#3F3D56"/>
<path d="M119.178 472.828C123.359 472.828 126.749 469.437 126.749 465.254C126.749 461.071 123.359 457.68 119.178 457.68C114.996 457.68 111.606 461.071 111.606 465.254C111.606 469.437 114.996 472.828 119.178 472.828Z" fill="#3F3D56"/>
<path d="M124.684 312.741C124.684 312.741 142.581 258.346 143.958 254.559C145.334 250.772 159.789 256.969 163.575 258.002C167.361 259.034 166.329 262.821 166.329 262.821L147.055 318.594L152.906 321.348L170.803 265.231C181.128 254.559 173.556 253.87 173.556 253.87C173.556 253.87 151.53 246.296 143.269 245.608C135.009 244.919 138.107 254.903 138.107 254.903L118.145 307.921L124.684 312.741Z" fill="#3F3D56"/>
<path d="M167.705 325.823L167.702 325.82C165.162 322.177 161.556 319.412 157.38 317.905C157.232 317.85 157.06 317.788 156.864 317.719C147.382 314.404 81.3191 296.56 81.3191 296.56C81.3191 296.56 68.2408 291.74 62.39 304.823C56.5391 317.905 21.7782 426.351 21.7782 426.351C21.7782 426.351 89.765 462.72 109.586 466.679C110.809 466.974 112.072 467.074 113.327 466.975C116.696 466.508 120.012 465.716 123.228 464.61C126.786 463.45 130.17 461.814 133.289 459.745L171.835 344.414C171.835 344.414 177.342 331.676 167.705 325.823Z" fill="#3138C3"/>
<path d="M167.705 325.823L167.702 325.82C165.162 322.177 161.556 319.412 157.38 317.905C157.232 317.85 157.06 317.788 156.864 317.719C159.982 323.186 161.166 331.676 161.166 331.676C161.166 331.676 123.308 444.253 119.866 454.926C117.243 463.061 111.954 465.825 109.586 466.679C110.809 466.974 112.072 467.074 113.327 466.975C116.696 466.508 120.012 465.716 123.229 464.61C124.169 463.531 125.003 462.363 125.717 461.123C125.717 461.123 164.264 345.791 167.705 340.283C171.147 334.774 167.705 325.823 167.705 325.823Z" fill="#3F3D56"/>
<path d="M95.9463 473C100.128 473 103.518 469.609 103.518 465.426C103.518 461.243 100.128 457.852 95.9463 457.852C91.7646 457.852 88.3746 461.243 88.3746 465.426C88.3746 469.609 91.7646 473 95.9463 473Z" fill="#3F3D56"/>
<path d="M22.4665 441.155C26.6482 441.155 30.0382 437.764 30.0382 433.581C30.0382 429.398 26.6482 426.007 22.4665 426.007C18.2847 426.007 14.8948 429.398 14.8948 433.581C14.8948 437.764 18.2847 441.155 22.4665 441.155Z" fill="#3F3D56"/>
<path d="M155.929 259.169C152.884 260.134 149.59 259.947 146.673 258.645C143.756 257.343 141.417 255.015 140.101 252.104C138.785 249.192 138.582 245.899 139.531 242.848C140.48 239.796 142.515 237.199 145.25 235.549L171.811 203.149L195.403 207.374L163.624 240.81C164.495 242.497 164.985 244.354 165.061 246.25C165.136 248.147 164.795 250.036 164.061 251.787C163.328 253.537 162.219 255.105 160.814 256.381C159.409 257.656 157.742 258.608 155.929 259.169Z" fill="#A0616A"/>
<path d="M336.956 401.732L353.409 401.474L351.43 457.568H336.959L336.956 401.732Z" fill="#A0616A"/>
<path d="M333.267 452.842L361.767 452.841H361.768C366.585 452.841 371.204 454.755 374.61 458.162C378.016 461.569 379.93 466.19 379.93 471.008V471.599L333.268 471.6L333.267 452.842Z" fill="#2F2E41"/>
<path d="M228.022 386.855L245.995 398.397L210.044 441.661L197.866 433.841L228.022 386.855Z" fill="#A0616A"/>
<path d="M197.312 427.868L221.295 443.27L221.296 443.271C225.349 445.874 228.202 449.982 229.228 454.689C230.254 459.397 229.369 464.32 226.766 468.374L226.447 468.871L187.181 443.654L197.312 427.868Z" fill="#2F2E41"/>
<path d="M221.619 215.568C221.619 215.568 261.552 82.8948 274.386 81.102C287.22 79.3091 307.897 115.144 307.897 115.144C334.707 149.361 362.351 260.195 362.351 260.195C362.351 260.195 316.266 263.08 282.578 281.009C248.89 298.938 209.134 280.101 209.134 280.101L221.619 215.568Z" fill="#3F3D56"/>
<path opacity="0.1" d="M221.619 215.568C221.619 215.568 261.552 82.8949 274.386 81.102C287.22 79.3091 302.645 115.508 302.645 115.508C316.004 170.741 362.351 260.195 362.351 260.195C362.351 260.195 316.266 263.08 282.578 281.009C248.89 298.937 209.134 280.101 209.134 280.101L221.619 215.568Z" fill="black"/>
<path d="M254.381 175.873V242.541L246.538 339.114L207.352 412.164L226.055 425.527L279.49 356.04L300.624 287.044L333.816 439.781L358.752 437.999L341.434 226.232L308.57 166.624L254.381 175.873Z" fill="#2F2E41"/>
<path d="M294.645 111.391C307.113 123.863 295.535 137.226 295.535 137.226L309.785 169.297L253.677 184.441L234.07 96.8L247.429 82.5463C274.147 81.6554 274.161 81.1015 274.161 81.1015C278.842 85.684 294.645 111.391 294.645 111.391Z" fill="#CCCCCC"/>
<path d="M231.501 87.9489C226.862 91.3611 223.609 96.3313 222.337 101.948C221.065 107.565 221.859 113.453 224.574 118.531C231.002 130.805 237.916 149.818 234.351 170.691C227.899 208.466 207.218 237.165 195.698 246.382C191.687 249.59 191.547 254.263 192.136 257.618C193.781 266.99 202.865 277.626 209.148 279.758C209.571 279.898 210.015 279.968 210.46 279.964C220.668 279.968 245.778 247.447 274.632 183.92C292.602 144.356 279.56 112.634 265.455 92.9882C263.603 90.4178 261.26 88.2403 258.561 86.582C255.862 84.9238 252.861 83.8176 249.732 83.3277C246.603 82.8377 243.408 82.9737 240.331 83.7277C237.255 84.4818 234.359 85.8389 231.811 87.7205L231.501 87.9489Z" fill="#3F3D56"/>
<path d="M258.116 126.198L177.086 232.548L155.712 223.639L232.303 94.4647L258.116 126.198Z" fill="#3F3D56"/>
<path d="M282.151 69.5552H226.419C225.272 69.5539 224.173 69.0977 223.363 68.2869C222.552 67.476 222.096 66.3765 222.095 65.2298V41.2C222.093 36.97 222.924 32.781 224.54 28.8724C226.157 24.9637 228.528 21.412 231.517 18.4202C234.506 15.4284 238.056 13.055 241.962 11.4358C245.869 9.8165 250.056 8.98306 254.285 8.98306C258.514 8.98306 262.701 9.8165 266.607 11.4358C270.514 13.055 274.063 15.4284 277.053 18.4202C280.042 21.412 282.413 24.9637 284.03 28.8724C285.646 32.781 286.477 36.97 286.475 41.2V65.2298C286.474 66.3766 286.018 67.476 285.207 68.2869C284.396 69.0977 283.297 69.5539 282.151 69.5552Z" fill="#2F2E41"/>
<path d="M281.608 56.7117C287.86 45.2712 283.657 30.927 272.22 24.673C260.783 18.4191 246.443 22.6236 240.191 34.0641C233.939 45.5046 238.142 59.8488 249.579 66.1028C261.016 72.3567 275.356 68.1522 281.608 56.7117Z" fill="#A0616A"/>
<path d="M294.09 43.6029H260.012L259.662 38.7087L257.915 43.6029H252.667L251.975 33.9028L248.512 43.6029H238.358V43.1223C238.366 36.3692 241.051 29.8948 245.825 25.1196C250.598 20.3444 257.071 17.6584 263.822 17.6507H268.627C275.378 17.6583 281.85 20.3444 286.624 25.1196C291.398 29.8948 294.083 36.3692 294.09 43.1223V43.6029Z" fill="#2F2E41"/>
<path d="M259.733 74.0408C259.476 74.0406 259.22 74.018 258.967 73.9732L234.013 69.569V28.3147H261.483L260.803 29.1079C251.341 40.1466 258.469 58.046 263.561 67.733C263.936 68.4425 264.103 69.2436 264.043 70.044C263.984 70.8444 263.699 71.6117 263.222 72.2574C262.823 72.8095 262.299 73.259 261.692 73.5691C261.085 73.8791 260.414 74.0408 259.733 74.0408Z" fill="#2F2E41"/>
<path d="M-110 472.109C-110 471.873 -109.906 471.646 -109.739 471.479C-109.572 471.312 -109.346 471.218 -109.109 471.218H646.109C646.346 471.218 646.572 471.312 646.739 471.479C646.906 471.646 647 471.873 647 472.109C647 472.345 646.906 472.572 646.739 472.739C646.572 472.906 646.346 473 646.109 473H-109.109C-109.346 473 -109.572 472.906 -109.739 472.739C-109.906 472.572 -110 472.345 -110 472.109Z" fill="#CBCBCB"/>
</g>
<defs>
<clipPath id="clip0_1_65">
<rect width="453" height="472" fill="white"/>
</clipPath>
</defs>
</svg>
