<svg width="453" height="472" viewBox="0 0 453 472" fill="none" xmlns="http://www.w3.org/2000/svg">
<g clip-path="url(#clip0_1_94)">
<path d="M127.54 237.273C125.122 237.265 122.715 236.954 120.376 236.347L119.915 236.22L119.487 236.005C104.02 228.256 90.9721 218.021 80.7046 205.583C72.2052 195.227 65.5787 183.469 61.123 170.837C55.7948 155.714 53.2313 139.757 53.5552 123.727C53.5617 123.39 53.5672 123.131 53.5672 122.952C53.5672 115.159 57.8956 108.322 64.5942 105.533C69.7211 103.399 116.27 84.2926 119.633 82.9122C125.967 79.7407 132.725 82.3878 133.806 82.8507C136.232 83.8417 179.263 101.43 188.562 105.854C198.146 110.415 200.703 118.607 200.703 122.729C200.703 141.39 197.469 158.83 191.09 174.565C185.939 187.301 178.638 199.059 169.505 209.326C151.885 229.142 134.26 236.166 134.09 236.228C131.983 236.952 129.767 237.306 127.54 237.273ZM123.395 227.013C124.923 227.356 128.441 227.869 130.734 227.033C133.647 225.972 148.399 218.327 162.184 202.825C181.231 181.407 190.895 154.482 190.909 122.798C190.875 122.156 190.419 117.578 184.352 114.691C175.233 110.352 130.505 92.0758 130.054 91.8916L129.931 91.8392C128.993 91.4467 126.01 90.6199 123.954 91.6967L123.542 91.8885C123.044 92.0931 73.6312 112.373 68.3613 114.568C64.6749 116.102 63.3614 119.905 63.3614 122.952C63.3614 123.174 63.3557 123.498 63.3475 123.917C62.9264 145.596 67.9466 198.941 123.395 227.013Z" fill="#3F3D56"/>
<path d="M122.117 86.8501C122.117 86.8501 72.2002 107.459 66.852 109.699C61.5038 111.939 58.8297 117.316 58.8297 122.692C58.8297 128.068 54.8185 198.222 122.117 232.141C122.117 232.141 128.225 233.84 132.859 232.141C137.493 230.442 196.323 201.768 196.323 122.468C196.323 122.468 196.323 114.404 186.964 109.923C177.604 105.443 132.353 86.8501 132.353 86.8501C132.353 86.8501 126.796 84.386 122.117 86.8501Z" fill="#F25C05"/>
<path opacity="0.1" d="M127.116 103.272V212.752C127.116 212.752 76.7382 188.484 77.184 124.686L127.116 103.272Z" fill="black"/>
<path d="M127.552 182.097L111.347 161.316L120.771 154.005L128.444 163.845L154.365 136.554L163.033 144.745L127.552 182.097Z" fill="white"/>
<path d="M524.025 472H190.252C190.02 472 189.797 471.908 189.633 471.743C189.469 471.579 189.376 471.356 189.376 471.124C189.376 470.892 189.469 470.669 189.633 470.505C189.797 470.341 190.02 470.248 190.252 470.248H524.025C524.257 470.248 524.48 470.341 524.644 470.505C524.809 470.669 524.901 470.892 524.901 471.124C524.901 471.356 524.809 471.579 524.644 471.743C524.48 471.908 524.257 472 524.025 472Z" fill="#CACACA"/>
<path d="M286.736 458.194L300.284 458.193L306.73 405.947L286.733 405.948L286.736 458.194Z" fill="#FFB8B8"/>
<path d="M283.28 453.772L309.962 453.77H309.963C314.472 453.771 318.797 455.562 321.986 458.75C325.175 461.938 326.966 466.262 326.967 470.77V471.323L283.28 471.324L283.28 453.772Z" fill="#2F2E41"/>
<path d="M332.29 458.194L345.838 458.193L352.284 405.947L332.288 405.948L332.29 458.194Z" fill="#FFB8B8"/>
<path d="M328.834 453.772L355.516 453.77H355.517C360.027 453.771 364.352 455.562 367.54 458.75C370.729 461.938 372.521 466.262 372.521 470.77V471.323L328.835 471.324L328.834 453.772Z" fill="#2F2E41"/>
<path d="M308.031 274.717L311.281 440.47L284.99 438.84L266.751 333.264L260.99 261.28L308.031 274.717Z" fill="#2F2E41"/>
<path d="M353.151 246.884L356.835 443.097L326.174 442.222L319.551 325.586L308.031 283.356L260.991 261.281L268.671 208.493L337.791 207.533L353.151 246.884Z" fill="#2F2E41"/>
<path d="M300.288 71.2442C313.273 71.2442 323.8 60.7202 323.8 47.7382C323.8 34.7562 313.273 24.2322 300.288 24.2322C287.303 24.2322 276.777 34.7562 276.777 47.7382C276.777 60.7202 287.303 71.2442 300.288 71.2442Z" fill="#FFB8B8"/>
<path d="M319.789 81.1464L323.39 86.6011L332.991 113.474L325.311 218.09L280.19 219.051L274.431 99.0774L286.497 83.999L319.789 81.1464Z" fill="#CCCCCC"/>
<path d="M256.19 101.957L248.51 100.997C248.51 100.997 246.59 101.957 245.63 108.676C244.67 115.394 233.15 174.9 233.15 174.9L248.51 247.844L265.79 224.809L255.23 184.498L265.79 144.187L256.19 101.957Z" fill="#2F2E41"/>
<path d="M354.111 100.998H359.871L374.271 178.739L360.831 239.205L347.391 217.131L351.23 193.136L349.311 172.022L342.591 159.544L354.111 100.998Z" fill="#2F2E41"/>
<path d="M314.181 47.7382L309.906 46.6697C309.906 46.6697 306.7 28.506 299.219 30.6429C291.738 32.7798 272.502 34.9167 272.502 26.3691C272.502 17.8214 290.67 10.3423 301.357 11.4107C312.044 12.4792 325.693 16.0238 329.143 31.7113C334.674 56.8593 317.731 63.2113 317.731 63.2113L318.013 62.2957C318.796 59.7533 318.852 57.0428 318.175 54.4703C317.498 51.8978 316.114 49.5659 314.181 47.7382Z" fill="#2F2E41"/>
<path d="M249.47 100.997L280.191 88.5202L287.391 83.2414L308.991 178.739L319.071 80.3621L358.911 100.997L345.471 166.262L343.551 191.217L349.311 211.372C349.311 211.372 369.471 225.769 362.751 241.125C356.031 256.482 348.351 257.441 348.351 257.441C348.351 257.441 315.711 226.728 313.791 219.05C311.871 211.372 308.991 197.935 308.991 197.935C308.991 197.935 292.671 259.361 273.471 258.401C254.271 257.441 254.271 237.286 254.271 237.286L259.071 216.171L266.751 194.096L262.911 157.624L249.47 100.997Z" fill="#2F2E41"/>
</g>
<defs>
<clipPath id="clip0_1_94">
<rect width="453" height="472" fill="white"/>
</clipPath>
</defs>
</svg>
